<?xml version="1.0" encoding="UTF-8" standalone="no"?>
<svg
   xmlns:dc="http://purl.org/dc/elements/1.1/"
   xmlns:cc="http://creativecommons.org/ns#"
   xmlns:rdf="http://www.w3.org/1999/02/22-rdf-syntax-ns#"
   xmlns:svg="http://www.w3.org/2000/svg"
   xmlns="http://www.w3.org/2000/svg"
   xmlns:sodipodi="http://sodipodi.sourceforge.net/DTD/sodipodi-0.dtd"
   xmlns:inkscape="http://www.inkscape.org/namespaces/inkscape"
   width="138"
   height="104"
   viewBox="0 0 138 104"
   version="1.1"
   id="svg31"
   sodipodi:docname="logo_natura.svg"
   inkscape:version="0.92.3 (2405546, 2018-03-11)">
  <metadata
     id="metadata35">
    <rdf:RDF>
      <cc:Work
         rdf:about="">
        <dc:format>image/svg+xml</dc:format>
        <dc:type
           rdf:resource="http://purl.org/dc/dcmitype/StillImage" />
      </cc:Work>
    </rdf:RDF>
  </metadata>
  <sodipodi:namedview
     pagecolor="#ffffff"
     bordercolor="#666666"
     borderopacity="1"
     objecttolerance="10"
     gridtolerance="10"
     guidetolerance="10"
     inkscape:pageopacity="0"
     inkscape:pageshadow="2"
     inkscape:window-width="1853"
     inkscape:window-height="1025"
     id="namedview33"
     showgrid="false"
     inkscape:zoom="2.2692308"
     inkscape:cx="69"
     inkscape:cy="52"
     inkscape:window-x="67"
     inkscape:window-y="27"
     inkscape:window-maximized="1"
     inkscape:current-layer="svg31" />
  <defs
     id="defs19">
    <style
       id="style2">
            .cls-1{fill:#ff6c0e}.cls-2{fill:url(#radial-gradient)}
        </style>
    <radialGradient
       id="radial-gradient"
       cx="39.126"
       cy="11.246"
       r="80.727"
       fx=".588"
       fy="-24.049"
       gradientTransform="matrix(.705 0 0 .705 11.493 3.327)"
       gradientUnits="userSpaceOnUse">
      <stop
         offset=".665"
         stop-color="#f9b80a"
         id="stop4" />
      <stop
         offset=".728"
         stop-color="#f9b40a"
         id="stop6" />
      <stop
         offset=".787"
         stop-color="#faa90a"
         id="stop8" />
      <stop
         offset=".843"
         stop-color="#fb9609"
         id="stop10" />
      <stop
         offset=".899"
         stop-color="#fc7c09"
         id="stop12" />
      <stop
         offset=".954"
         stop-color="#fd5a09"
         id="stop14" />
      <stop
         offset="1"
         stop-color="#ff3708"
         id="stop16" />
    </radialGradient>
  </defs>
  <g
     id="Logo_Natura"
     data-name="Logo Natura"
     transform="translate(-132.37 -50.447)">
    <g
       id="Tipo"
       transform="translate(132.37 120.381)">
      <path
         id="XMLID_16_"
         d="M12.207 192c8.344 0 12.207 5.261 12.207 10.358v11.18h-5.22v-11.18c0-3.165-1.85-8.344-6.946-8.344S5.3 199.152 5.3 202.358v11.18H0v-11.18C0 197.261 3.864 192 12.207 192"
         class="cls-1"
         transform="translate(0 -182.999)" />
      <path
         id="XMLID_15_"
         d="M188.948 214.438c-8.344 0-12.248-5.261-12.248-10.358V192.9h5.261v11.18c0 3.206 1.85 8.344 6.946 8.344s6.946-5.138 6.946-8.344V192.9h5.261v11.18c.041 5.1-3.822 10.358-12.166 10.358"
         class="cls-1"
         transform="translate(-104.659 -183.529)" />
      <path
         id="XMLID_14_"
         d="M86.434 212.425a8.839 8.839 0 0 1-4.275 1.808c-5.343.822-12.783-2.672-13.07-10.4-.288-7.892 7.522-11.262 12.659-11.139 8.631.247 11.673 6.7 11.673 10.4v10.851h-5.3v-10.81c0-2.343-1.11-8.385-6.535-8.508-5.343-.123-7.069 4.809-7.069 8.467 0 2.343.493 8.138 6.658 8.508 1.891.123 4.562-.411 5.261-1.069z"
         class="cls-1"
         transform="translate(-40.917 -183.406)" />
      <path
         id="XMLID_13_"
         d="M152.426 203.763a8.844 8.844 0 0 1-4.85.123c-2.466-.658-6.576-1.767-6.576-10.276V170.1h5.343v9.33h4.891v3.288h-4.891s.123 6.617 0 11.961c-.123 4.768 1.356 6.371 2.384 6.905a5.957 5.957 0 0 0 3.7.247z"
         class="cls-1"
         transform="translate(-83.466 -170.1)" />
      <path
         id="XMLID_12_"
         d="M248.341 201.874c0-5.22 2.713-8.919 7.48-9.412 3.37-.329 4.562.288 4.562.288v2.137a7.377 7.377 0 0 0-3.7.082c-2.178.658-3.041 3.946-3.041 5.056v13.852H248.3v-12z"
         class="cls-1"
         transform="translate(-146.988 -183.214)" />
      <path
         id="XMLID_11_"
         d="M296.134 212.425a8.839 8.839 0 0 1-4.275 1.808c-5.343.822-12.783-2.672-13.07-10.4-.288-7.892 7.522-11.262 12.659-11.139 8.631.247 11.673 6.7 11.673 10.4v10.851h-5.3v-10.81c0-2.343-1.11-8.385-6.535-8.508-5.343-.123-7.069 4.809-7.069 8.467 0 2.343.493 8.138 6.658 8.508 1.891.123 4.562-.411 5.261-1.069z"
         class="cls-1"
         transform="translate(-165.121 -183.406)" />
    </g>
    <g
       id="Rosácea"
       transform="translate(155.894 50.447)">
      <path
         id="XMLID_1_"
         d="M71.672 19.331a62.083 62.083 0 0 1-2.966 9.2c-.067.169-.017.219.135.152.978-.455 5.342-2.629 9.977-4.6 4.635-1.955 13.213-1.921 11.022 7.6-2.208 9.491-13.348 15.117-14.46 15.693-1.079.556-2.427 1.112-2.949 1.449-.2.135-.32.287.051.388 1.18.3 5.157.084 5.123 1.753-.051 1.8-2.966 4.753-10.584 7.989A26.956 26.956 0 0 1 50.066 60.5a.131.131 0 0 0-.135.034c-.455.489-4.314 4.2-15.269 2.309-7.887-1.365-9.842-2.14-11.612-4.264a2.717 2.717 0 0 1-.185-3.067c.169-.354.2-.539-.034-.59C10.95 52.466 3.72 44.949 1.091 40.213-.241 37.8.181 36.185.838 35.19c.944-1.416 4.112-1.551 7.4-.708 3.657.944 5.646 1.466 6.421 1.669.253.067.287-.017.135-.2-.91-1.146-4.129-5.208-5.8-7.8-2.746-4.286-6.167-15.679 2.765-20.365 9.927-5.174 18.572 3.944 20.51 6.32 1.7 2.056 5.056 6.64 5.342 7.112.438.725.64.1.64.1s2.359-8.393 4.382-12.286A16.623 16.623 0 0 1 60.01.219c12.185 2.275 12.64 14.612 11.662 19.112zM59.184 9.539c-6.927-2.107-11.224 3-13.2 9.522-1.6 5.242-1.938 6.624-2.882 9.354-1.331 3.826-4.517 4.112-6.994 1.163-2.865-3.455-6.606-8.545-8.747-11.039-2.8-3.253-9.522-5.983-12.943-1.77-5.157 6.371 1.685 13.517 5.275 17.8 2.494 3.017 5.528 5.107 4.534 6.826-.371.64-1.163.843-2.208.843C19.511 42.2 11.2 39.943 9.3 39.589c-1.652-.3-2.882-.2-3.337 1.028-.556 1.483 1.517 5.68 6.927 8.477 5.359 2.747 14.039 4.129 14.881 4.315 3.135.674 2.528 2.208 1.786 3-.725.792-1.584 1.281-1.4 2.09.438 1.989 4.719 2.393 7.264 2.815 2.494.421 5.7.624 7.938-.27 2.191-.876 2.326-2.09 3.843-2.68 2.022-.775 2.73-.084 7.1.725 2.781.522 7.7-.135 10.4-1.028 5.056-1.685 7.146-3.3 7.129-4.1 0-.624-.876-.86-1.786-.978-1.1-.135-4.736-.758-5.966-1.551s-.3-2.225 2.241-3.253c2.562-1.011 10.769-4.433 13.853-7.23 3.084-2.764 6.017-7.365 3.4-10.045-2.545-2.646-7.1.084-9.556 1.213-3.3 1.551-8.578 4.264-10.4 4.685-1.584.354-4.567.236-3.185-3.354 1.736-4.449 2.562-7.2 3.623-9.876 1.345-3.348 3.235-11.555-4.871-14.033z"
         class="cls-2"
         transform="translate(-.217 .02)" />
    </g>
  </g>
</svg>
